<mxfile host="65bd71144e">
    <diagram id="d8iEvIILTyGINw3sgqkr" name="Overview">
        <mxGraphModel dx="707" dy="358" grid="1" gridSize="10" guides="1" tooltips="1" connect="1" arrows="1" fold="1" page="1" pageScale="1" pageWidth="850" pageHeight="1100" math="0" shadow="0">
            <root>
                <mxCell id="0"/>
                <mxCell id="1" parent="0"/>
                <mxCell id="35" value="" style="whiteSpace=wrap;html=1;" parent="1" vertex="1">
                    <mxGeometry x="40" y="40" width="630" height="430" as="geometry"/>
                </mxCell>
                <mxCell id="36" style="edgeStyle=none;html=1;" parent="1" source="2" target="6" edge="1">
                    <mxGeometry relative="1" as="geometry"/>
                </mxCell>
                <mxCell id="37" style="edgeStyle=none;html=1;entryX=0;entryY=0.5;entryDx=0;entryDy=0;" parent="1" source="2" target="5" edge="1">
                    <mxGeometry relative="1" as="geometry"/>
                </mxCell>
                <mxCell id="38" style="edgeStyle=none;html=1;" parent="1" source="2" target="22" edge="1">
                    <mxGeometry relative="1" as="geometry"/>
                </mxCell>
                <mxCell id="39" style="edgeStyle=none;html=1;entryX=0.4;entryY=0.033;entryDx=0;entryDy=0;entryPerimeter=0;" parent="1" source="2" target="4" edge="1">
                    <mxGeometry relative="1" as="geometry"/>
                </mxCell>
                <mxCell id="2" value="Main" style="whiteSpace=wrap;html=1;" parent="1" vertex="1">
                    <mxGeometry x="80" y="170" width="120" height="60" as="geometry"/>
                </mxCell>
                <mxCell id="4" value="Hitbox" style="whiteSpace=wrap;html=1;" parent="1" vertex="1">
                    <mxGeometry x="235" y="370" width="120" height="60" as="geometry"/>
                </mxCell>
                <mxCell id="41" style="edgeStyle=none;html=1;" parent="1" source="5" target="40" edge="1">
                    <mxGeometry relative="1" as="geometry"/>
                </mxCell>
                <mxCell id="43" style="edgeStyle=none;html=1;entryX=0;entryY=0.5;entryDx=0;entryDy=0;" parent="1" source="5" target="42" edge="1">
                    <mxGeometry relative="1" as="geometry"/>
                </mxCell>
                <mxCell id="5" value="Player" style="whiteSpace=wrap;html=1;" parent="1" vertex="1">
                    <mxGeometry x="300" y="170" width="120" height="60" as="geometry"/>
                </mxCell>
                <mxCell id="6" value="Ground" style="whiteSpace=wrap;html=1;" parent="1" vertex="1">
                    <mxGeometry x="80" y="370" width="120" height="60" as="geometry"/>
                </mxCell>
                <mxCell id="22" value="Obstacle" style="whiteSpace=wrap;html=1;" parent="1" vertex="1">
                    <mxGeometry x="300" y="270" width="120" height="60" as="geometry"/>
                </mxCell>
                <mxCell id="40" value="SoundHandling" style="whiteSpace=wrap;html=1;" parent="1" vertex="1">
                    <mxGeometry x="510" y="170" width="120" height="60" as="geometry"/>
                </mxCell>
                <mxCell id="42" value="SpriteHandling" style="whiteSpace=wrap;html=1;" parent="1" vertex="1">
                    <mxGeometry x="510" y="260" width="120" height="60" as="geometry"/>
                </mxCell>
                <mxCell id="45" value="&lt;font style=&quot;font-size: 23px;&quot;&gt;Components overview&lt;/font&gt;" style="text;strokeColor=none;align=center;fillColor=none;html=1;verticalAlign=middle;whiteSpace=wrap;rounded=0;" parent="1" vertex="1">
                    <mxGeometry x="225" y="70" width="270" height="30" as="geometry"/>
                </mxCell>
                <mxCell id="46" value="uses" style="edgeStyle=none;html=1;" parent="1" edge="1">
                    <mxGeometry relative="1" as="geometry">
                        <mxPoint x="570" y="440" as="sourcePoint"/>
                        <mxPoint x="650" y="440" as="targetPoint"/>
                    </mxGeometry>
                </mxCell>
            </root>
        </mxGraphModel>
    </diagram>
    <diagram id="J_dDpalCQh9bpaIRINJ-" name="Hitbox">
        <mxGraphModel dx="832" dy="421" grid="1" gridSize="10" guides="1" tooltips="1" connect="1" arrows="1" fold="1" page="1" pageScale="1" pageWidth="850" pageHeight="1100" math="0" shadow="0">
            <root>
                <mxCell id="0"/>
                <mxCell id="1" parent="0"/>
                <mxCell id="zAbavwDiN6uPS-lUpI6l-1" value="" style="whiteSpace=wrap;html=1;fillColor=#f5f5f5;fontColor=#333333;strokeColor=#666666;" parent="1" vertex="1">
                    <mxGeometry x="40" y="80" width="460" height="280" as="geometry"/>
                </mxCell>
                <mxCell id="DoREzMUwd321XQ9yjuoB-1" style="edgeStyle=none;html=1;exitX=1;exitY=0.75;exitDx=0;exitDy=0;entryX=0.909;entryY=0.757;entryDx=0;entryDy=0;entryPerimeter=0;" parent="1" edge="1">
                    <mxGeometry relative="1" as="geometry">
                        <mxPoint x="160" y="202.5" as="sourcePoint"/>
                        <mxPoint x="149.99" y="202.99" as="targetPoint"/>
                    </mxGeometry>
                </mxCell>
                <mxCell id="iQxjiwZKaKZiXUrlOn_r-4" style="edgeStyle=none;html=1;strokeColor=#000000;entryX=0.002;entryY=0.378;entryDx=0;entryDy=0;entryPerimeter=0;" parent="1" source="iQxjiwZKaKZiXUrlOn_r-1" target="iQxjiwZKaKZiXUrlOn_r-3" edge="1">
                    <mxGeometry relative="1" as="geometry"/>
                </mxCell>
                <mxCell id="knNN9_G72atfwf_4Dzha-10" style="edgeStyle=none;html=1;entryX=0;entryY=0.5;entryDx=0;entryDy=0;strokeColor=#000000;dashed=1;" edge="1" parent="1" target="iQxjiwZKaKZiXUrlOn_r-2">
                    <mxGeometry relative="1" as="geometry">
                        <mxPoint x="210" y="160" as="sourcePoint"/>
                    </mxGeometry>
                </mxCell>
                <mxCell id="iQxjiwZKaKZiXUrlOn_r-1" value="Obstacle" style="whiteSpace=wrap;html=1;fillColor=#1ba1e2;fontColor=#ffffff;strokeColor=#006EAF;" parent="1" vertex="1">
                    <mxGeometry x="90" y="120" width="120" height="60" as="geometry"/>
                </mxCell>
                <mxCell id="knNN9_G72atfwf_4Dzha-9" style="edgeStyle=none;html=1;entryX=0.5;entryY=1;entryDx=0;entryDy=0;strokeColor=#000000;" edge="1" parent="1" source="iQxjiwZKaKZiXUrlOn_r-2" target="iQxjiwZKaKZiXUrlOn_r-3">
                    <mxGeometry relative="1" as="geometry"/>
                </mxCell>
                <mxCell id="iQxjiwZKaKZiXUrlOn_r-2" value="Hitbox" style="whiteSpace=wrap;html=1;fillColor=#1ba1e2;fontColor=#ffffff;strokeColor=#006EAF;" parent="1" vertex="1">
                    <mxGeometry x="300" y="240" width="120" height="60" as="geometry"/>
                </mxCell>
                <mxCell id="iQxjiwZKaKZiXUrlOn_r-3" value="Position" style="whiteSpace=wrap;html=1;fillColor=#1ba1e2;fontColor=#ffffff;strokeColor=#006EAF;" parent="1" vertex="1">
                    <mxGeometry x="300" y="140" width="120" height="60" as="geometry"/>
                </mxCell>
                <mxCell id="knNN9_G72atfwf_4Dzha-3" style="edgeStyle=none;html=1;" edge="1" parent="1" source="knNN9_G72atfwf_4Dzha-2" target="zAbavwDiN6uPS-lUpI6l-1">
                    <mxGeometry relative="1" as="geometry"/>
                </mxCell>
                <mxCell id="knNN9_G72atfwf_4Dzha-4" style="edgeStyle=none;html=1;" edge="1" parent="1" source="knNN9_G72atfwf_4Dzha-2" target="iQxjiwZKaKZiXUrlOn_r-3">
                    <mxGeometry relative="1" as="geometry"/>
                </mxCell>
                <mxCell id="knNN9_G72atfwf_4Dzha-5" style="edgeStyle=none;html=1;" edge="1" parent="1" source="knNN9_G72atfwf_4Dzha-2" target="zAbavwDiN6uPS-lUpI6l-1">
                    <mxGeometry relative="1" as="geometry"/>
                </mxCell>
                <mxCell id="knNN9_G72atfwf_4Dzha-6" style="edgeStyle=none;html=1;strokeColor=#000000;entryX=0;entryY=0.5;entryDx=0;entryDy=0;" edge="1" parent="1" source="knNN9_G72atfwf_4Dzha-2" target="iQxjiwZKaKZiXUrlOn_r-3">
                    <mxGeometry relative="1" as="geometry"/>
                </mxCell>
                <mxCell id="knNN9_G72atfwf_4Dzha-11" value="" style="edgeStyle=none;html=1;strokeColor=#000000;dashed=1;" edge="1" parent="1" source="knNN9_G72atfwf_4Dzha-2">
                    <mxGeometry x="-0.2448" y="-15" relative="1" as="geometry">
                        <mxPoint x="300" y="260" as="targetPoint"/>
                        <mxPoint as="offset"/>
                    </mxGeometry>
                </mxCell>
                <mxCell id="knNN9_G72atfwf_4Dzha-2" value="Player" style="whiteSpace=wrap;html=1;fillColor=#1ba1e2;fontColor=#ffffff;strokeColor=#006EAF;" vertex="1" parent="1">
                    <mxGeometry x="90" y="190" width="120" height="60" as="geometry"/>
                </mxCell>
                <mxCell id="knNN9_G72atfwf_4Dzha-8" style="edgeStyle=none;html=1;entryX=0;entryY=0.5;entryDx=0;entryDy=0;strokeColor=#000000;" edge="1" parent="1" target="iQxjiwZKaKZiXUrlOn_r-3">
                    <mxGeometry relative="1" as="geometry">
                        <mxPoint x="196.04809695133497" y="300" as="sourcePoint"/>
                    </mxGeometry>
                </mxCell>
                <mxCell id="knNN9_G72atfwf_4Dzha-12" style="edgeStyle=none;html=1;entryX=0;entryY=0.5;entryDx=0;entryDy=0;strokeColor=#000000;dashed=1;" edge="1" parent="1" source="knNN9_G72atfwf_4Dzha-7" target="iQxjiwZKaKZiXUrlOn_r-2">
                    <mxGeometry relative="1" as="geometry"/>
                </mxCell>
                <mxCell id="knNN9_G72atfwf_4Dzha-7" value="Jetpack" style="whiteSpace=wrap;html=1;fillColor=#1ba1e2;fontColor=#ffffff;strokeColor=#006EAF;" vertex="1" parent="1">
                    <mxGeometry x="90" y="260" width="120" height="60" as="geometry"/>
                </mxCell>
            </root>
        </mxGraphModel>
    </diagram>
</mxfile>